# xmcd CD database file
#
# Track frame offsets:
#	150
#	32406
#	50818
#	80539
#	107798
#	138973
#	158325
#	185328
#
# Disc length: 2781 seconds
#
# Revision: 0
# Processed by: cddbd v1.5.1PL2 Copyright (c) Steve Scherf et al.
# Submitted via: CDex 1.51
#
DISCID=5c0adb08
DTITLE=Ismael Quintana - Jessica: Ricardo Marrero and The Group With Ismael Quintana
DYEAR=1979
DGENRE=Salsa
TTITLE0=Jessica 
TTITLE1=No Hay Que Ilusionarse 
TTITLE2=Cobarde 
TTITLE3=Cancion De Wilfredo 
TTITLE4=No Se Compara 
TTITLE5=Tu Amor 
TTITLE6=Miguel Mendizabel 
TTITLE7=Just The Way You Are 
EXTD=YEAR: 1979
EXTT0=
EXTT1=
EXTT2=
EXTT3=
EXTT4=
EXTT5=
EXTT6=
EXTT7=
PLAYORDER=
